<svg width="305" height="63" viewBox="0 0 305 63" fill="none" xmlns="http://www.w3.org/2000/svg">
<path d="M80.8288 15.04C79.9371 14.5832 79.0409 14.3557 78.1396 14.3557C77.0544 14.3557 76.0614 14.6259 75.161 15.1658C74.2593 15.7058 73.5516 16.4404 73.0369 17.3709C72.5218 18.3013 72.2649 19.3353 72.2649 20.4709C72.2649 21.6066 72.5218 22.6443 73.0369 23.5841C73.5516 24.5238 74.2593 25.269 75.161 25.817C76.0614 26.3662 77.0544 26.6402 78.1396 26.6402C79.0038 26.6402 79.8813 26.4312 80.7738 26.0128C81.6654 25.5932 82.4603 25.0309 83.1593 24.3237L85.7247 27.143C84.6941 28.2229 83.4855 29.0795 82.0975 29.7124C80.7087 30.3452 79.3161 30.6614 77.9186 30.6614C76.0247 30.6614 74.3056 30.2194 72.7608 29.335C71.2164 28.4509 70.0024 27.2372 69.1199 25.6911C68.2374 24.1464 67.7961 22.4243 67.7961 20.5262C67.7961 18.6467 68.2466 16.9432 69.1474 15.4157C70.0483 13.8908 71.2853 12.6889 72.8576 11.8141C74.4299 10.9394 76.1715 10.5024 78.0846 10.5024C79.4817 10.5024 80.8605 10.795 82.2218 11.3814C83.5822 11.9678 84.7408 12.7645 85.6971 13.7693L83.1589 16.9246C82.4979 16.1242 81.7205 15.4955 80.8288 15.04Z" fill="#69676F"/>
<path d="M101.69 11.8146C103.271 12.6894 104.516 13.8956 105.427 15.431C106.337 16.9665 106.792 18.6755 106.792 20.555C106.792 22.4345 106.337 24.1473 105.427 25.6921C104.516 27.2381 103.271 28.4518 101.69 29.3359C100.108 30.2199 98.3519 30.6624 96.4213 30.6624C94.4907 30.6624 92.7345 30.2204 91.153 29.3359C89.5715 28.4518 88.3262 27.2419 87.4153 25.7064C86.5053 24.171 86.0503 22.4531 86.0503 20.555C86.0503 18.6755 86.5053 16.9665 87.4153 15.431C88.3262 13.8956 89.5669 12.6898 91.1392 11.8146C92.7116 10.9395 94.4724 10.5029 96.4213 10.5029C98.3523 10.5029 100.108 10.9395 101.69 11.8146ZM93.4977 15.179C92.5777 15.7282 91.852 16.4776 91.3186 17.4267C90.7852 18.377 90.5191 19.4189 90.5191 20.5546C90.5191 21.7088 90.7898 22.7596 91.3323 23.7099C91.8749 24.659 92.6015 25.4122 93.5115 25.9707C94.4215 26.5292 95.4099 26.8087 96.4764 26.8087C97.5428 26.8087 98.522 26.5347 99.4145 25.9855C100.306 25.4362 101.014 24.6831 101.538 23.7234C102.062 22.7651 102.324 21.7088 102.324 20.5546C102.324 19.4189 102.062 18.3774 101.538 17.4267C101.014 16.4776 100.306 15.7282 99.4145 15.179C98.522 14.631 97.5428 14.3557 96.4764 14.3557C95.4099 14.3557 94.4169 14.6314 93.4977 15.179Z" fill="#69676F"/>
<path d="M109.504 10.8096H114.359L120.371 22.8163L126.33 10.8096H131.157V30.3543H127.24V17.1473L121.75 28.3718H118.937L113.42 17.1473V30.3547H109.504V10.8096Z" fill="#69676F"/>
<path d="M133.868 10.8096H138.723L144.736 22.8163L150.694 10.8096H155.521V30.3543H151.604V17.1473L146.114 28.3718H143.301L137.784 17.1473V30.3547H133.868V10.8096H133.868Z" fill="#69676F"/>
<path d="M163.763 25.5934C164.544 26.4036 165.588 26.8084 166.894 26.8084C168.162 26.8084 169.174 26.4086 169.928 25.6078C170.681 24.8069 171.059 23.7004 171.059 22.2856V10.8096H175.417V22.2856C175.417 23.9984 175.073 25.4824 174.383 26.7384C173.693 27.9956 172.705 28.9632 171.418 29.6425C170.13 30.3231 168.613 30.6617 166.866 30.6617C165.119 30.6617 163.593 30.3226 162.288 29.6425C160.982 28.9637 159.98 27.996 159.281 26.7384C158.582 25.4824 158.233 23.9984 158.233 22.2856V10.8096H162.591V22.2856C162.591 23.6805 162.981 24.7845 163.763 25.5934Z" fill="#69676F"/>
<path d="M191.479 10.8096H195.616V30.3543H191.644L182.294 17.7903V30.3543H178.129V10.8096H182.101L191.479 23.4306V10.8096Z" fill="#69676F"/>
<path d="M198.327 10.8096H202.685V30.3543H198.327V10.8096Z" fill="#69676F"/>
<path d="M205.397 10.8096H221.533V14.5513H215.63V30.3543H211.272V14.5513H205.397V10.8096H205.397Z" fill="#69676F"/>
<path d="M241.438 10.8096L234.404 24.0444V30.3543H230.046V24.1559L222.902 10.8096H227.288L232.225 19.5774L237.052 10.8096H241.438Z" fill="#69676F"/>
<path d="M249.933 10.8096H263.808L263.78 14.4669H254.291V19.2704H263.008V22.9556H254.291V30.3547H249.934V10.8096H249.933Z" fill="#69676F"/>
<path d="M280.825 11.8146C282.406 12.6894 283.652 13.8956 284.562 15.431C285.472 16.9665 285.927 18.6755 285.927 20.555C285.927 22.4345 285.472 24.1473 284.562 25.6921C283.652 27.2381 282.406 28.4518 280.825 29.3359C279.243 30.2199 277.487 30.6624 275.557 30.6624C273.626 30.6624 271.87 30.2204 270.288 29.3359C268.707 28.4518 267.461 27.2419 266.551 25.7064C265.641 24.171 265.186 22.4531 265.186 20.555C265.186 18.6755 265.641 16.9665 266.551 15.431C267.461 13.8956 268.702 12.6898 270.274 11.8146C271.847 10.9395 273.608 10.5029 275.557 10.5029C277.487 10.5029 279.243 10.9395 280.825 11.8146ZM272.633 15.179C271.713 15.7282 270.987 16.4776 270.454 17.4267C269.92 18.377 269.654 19.4189 269.654 20.5546C269.654 21.7088 269.925 22.7596 270.468 23.7099C271.01 24.659 271.737 25.4122 272.647 25.9707C273.557 26.5292 274.545 26.8087 275.612 26.8087C276.678 26.8087 277.657 26.5347 278.55 25.9855C279.441 25.4362 280.15 24.6831 280.673 23.7234C281.198 22.7651 281.459 21.7088 281.459 20.5546C281.459 19.4189 281.198 18.3774 280.673 17.4267C280.15 16.4776 279.441 15.7282 278.55 15.179C277.657 14.631 276.678 14.3557 275.612 14.3557C274.545 14.3557 273.552 14.6314 272.633 15.179Z" fill="#69676F"/>
<path d="M300.062 30.3543L297 24.7697H296.587H292.559V30.3543H288.202V10.8096H296.587C299.106 10.8096 301.055 11.401 302.434 12.5819C303.813 13.7652 304.503 15.4358 304.503 17.5944C304.503 19.102 304.195 20.3913 303.579 21.4607C302.963 22.5314 302.066 23.3457 300.889 23.9043L305 30.3543H300.062ZM292.559 21.085H296.586C297.799 21.085 298.733 20.8004 299.386 20.2326C300.038 19.6648 300.365 18.8322 300.365 17.7337C300.365 16.6551 300.038 15.8411 299.386 15.2914C298.733 14.7422 297.8 14.4669 296.586 14.4669H292.559V21.085Z" fill="#69676F"/>
<path d="M78.9812 44.2453H82.4545V50.4518C81.6329 51.0601 80.6257 51.5528 79.4321 51.9307C78.2372 52.3098 77.1066 52.4981 76.0364 52.4981C74.4837 52.4981 73.0815 52.146 71.8283 51.4422C70.5763 50.7384 69.5903 49.77 68.8721 48.5389C68.1552 47.3078 67.7961 45.9294 67.7961 44.4015C67.7961 42.888 68.1657 41.5202 68.9055 40.2967C69.6454 39.0732 70.6643 38.114 71.9609 37.4166C73.2575 36.7191 74.7031 36.3708 76.3 36.3708C77.4435 36.3708 78.5863 36.5824 79.7286 37.005C80.8709 37.4267 81.8377 37.9937 82.6301 38.7068L80.3438 41.5535C79.787 41.0199 79.1464 40.5969 78.4207 40.2861C77.6959 39.9741 76.9814 39.8179 76.2783 39.8179C75.4579 39.8179 74.7181 40.0189 74.0583 40.4187C73.3997 40.8198 72.8788 41.3678 72.4981 42.0652C72.1173 42.7626 71.9275 43.5416 71.9275 44.4015C71.9275 45.2771 72.1173 46.0662 72.4981 46.77C72.8788 47.475 73.406 48.0272 74.0812 48.4279C74.7548 48.8277 75.5013 49.0286 76.3229 49.0286C77.0986 49.0286 77.9849 48.7757 78.9808 48.2717V44.2453H78.9812Z" fill="#69676F"/>
<path d="M84.4395 36.615H88.4616V48.7379H94.9877V52.2086H84.4395V36.615Z" fill="#69676F"/>
<path d="M107.967 37.4162C109.235 38.1136 110.231 39.0703 110.957 40.2861C111.681 41.502 112.044 42.8661 112.044 44.3783C112.044 45.9062 111.681 47.2854 110.957 48.5169C110.23 49.748 109.234 50.719 107.967 51.4308C106.7 52.1426 105.282 52.4985 103.715 52.4985C102.147 52.4985 100.729 52.1464 99.4632 51.4426C98.1945 50.7389 97.1986 49.7666 96.4742 48.5275C95.7493 47.2897 95.3865 45.9066 95.3865 44.3787C95.3865 42.8665 95.7493 41.5024 96.4742 40.2866C97.199 39.0707 98.1949 38.114 99.4632 37.4166C100.729 36.7191 102.147 36.3708 103.715 36.3708C105.283 36.3704 106.7 36.7187 107.967 37.4162ZM101.639 40.4187C100.987 40.8198 100.47 41.3716 100.089 42.0766C99.708 42.7804 99.5183 43.5555 99.5183 44.4011C99.5183 45.2611 99.7118 46.0438 100.1 46.7476C100.489 47.4526 101.005 48.0086 101.649 48.416C102.293 48.8247 102.998 49.0286 103.759 49.0286C104.521 49.0286 105.22 48.8247 105.858 48.416C106.495 48.0086 106.997 47.453 107.363 46.7476C107.73 46.0438 107.913 45.2611 107.913 44.4011C107.913 43.5555 107.729 42.7804 107.363 42.0766C106.997 41.3716 106.495 40.8193 105.858 40.4187C105.22 40.0189 104.521 39.8179 103.759 39.8179C102.998 39.8179 102.29 40.0189 101.639 40.4187Z" fill="#69676F"/>
<path d="M124.346 37.0933C125.203 37.4116 125.866 37.868 126.335 38.4612C126.804 39.0543 127.038 39.7518 127.038 40.5522C127.038 41.367 126.8 42.0801 126.324 42.6872C125.848 43.2956 125.199 43.711 124.379 43.9326C125.361 44.126 126.134 44.5786 126.698 45.2903C127.261 46.0021 127.544 46.8621 127.544 47.8703C127.544 48.7459 127.302 49.5142 126.819 50.1728C126.336 50.8331 125.646 51.3372 124.754 51.6864C123.859 52.0347 122.811 52.2086 121.61 52.2086H114.007V36.615H121.325C122.482 36.615 123.49 36.7737 124.346 37.0933ZM122.423 42.409C122.746 42.1358 122.906 41.7529 122.906 41.264C122.906 40.7895 122.745 40.4222 122.423 40.163C122.101 39.9038 121.661 39.7813 121.104 39.7957H118.028V42.8214H121.104C121.661 42.8219 122.102 42.6838 122.423 42.409ZM122.775 48.6053C123.185 48.3089 123.39 47.8935 123.39 47.3599C123.39 46.8701 123.185 46.4805 122.775 46.1917C122.365 45.9017 121.808 45.7649 121.104 45.7792H118.028V49.0503H121.104C121.808 49.0503 122.365 48.9017 122.775 48.6053Z" fill="#69676F"/>
<path d="M140.609 52.2086L139.554 49.4496H132.896L131.819 52.2086H127.688L134.302 36.615H138.433L144.895 52.2086H140.609ZM134.104 46.3356H138.367L136.258 40.7739L134.104 46.3356Z" fill="#69676F"/>
<path d="M146.074 36.615H150.096V48.7379H156.622V52.2086H146.074V36.615Z" fill="#69676F"/>
<path d="M163.325 36.615H167.348V52.2086H163.325V36.615Z" fill="#69676F"/>
<path d="M180.773 36.615H184.509V52.2086H180.993L174.005 42.8873V52.2086H170.247V36.615H173.785L180.795 46.0021L180.773 36.615Z" fill="#69676F"/>
<path d="M197.942 36.615H201.677V52.2086H198.162L191.174 42.8873V52.2086H187.415V36.615H190.954L197.964 46.0021L197.942 36.615Z" fill="#69676F"/>
<path d="M216.233 37.4162C217.5 38.1136 218.496 39.0703 219.222 40.2861C219.947 41.502 220.31 42.8661 220.31 44.3783C220.31 45.9062 219.947 47.2854 219.222 48.5169C218.496 49.748 217.5 50.719 216.233 51.4308C214.966 52.1426 213.548 52.4985 211.98 52.4985C210.412 52.4985 208.995 52.1464 207.729 51.4426C206.46 50.7389 205.464 49.7666 204.74 48.5275C204.015 47.2897 203.652 45.9066 203.652 44.3787C203.652 42.8665 204.015 41.5024 204.74 40.2866C205.464 39.0707 206.46 38.114 207.729 37.4166C208.995 36.7191 210.412 36.3708 211.98 36.3708C213.548 36.3704 214.966 36.7187 216.233 37.4162ZM209.904 40.4187C209.252 40.8198 208.735 41.3716 208.354 42.0766C207.973 42.7804 207.784 43.5555 207.784 44.4011C207.784 45.2611 207.977 46.0438 208.366 46.7476C208.754 47.4526 209.27 48.0086 209.914 48.416C210.559 48.8247 211.263 49.0286 212.025 49.0286C212.786 49.0286 213.486 48.8247 214.124 48.416C214.761 48.0086 215.262 47.453 215.628 46.7476C215.995 46.0438 216.178 45.2611 216.178 44.4011C216.178 43.5555 215.995 42.7804 215.628 42.0766C215.263 41.3716 214.761 40.8193 214.124 40.4187C213.486 40.0189 212.786 39.8179 212.025 39.8179C211.263 39.8179 210.555 40.0189 209.904 40.4187Z" fill="#69676F"/>
<path d="M219.924 36.615H224.254L228.1 47.8935L231.968 36.615H236.099L230.077 52.2086H225.903L219.924 36.615Z" fill="#69676F"/>
<path d="M246.177 52.2086L245.122 49.4496H238.463L237.387 52.2086H233.255L239.869 36.615H244.001L250.462 52.2086H246.177ZM239.672 46.3356H243.935L241.826 40.7739L239.672 46.3356Z" fill="#69676F"/>
<path d="M248.326 36.615H261.534V39.9734H256.918V52.2086H252.897V39.9738H248.326V36.615Z" fill="#69676F"/>
<path d="M264.092 36.615H268.114V52.2086H264.092V36.615Z" fill="#69676F"/>
<path d="M283.33 37.4162C284.597 38.1136 285.593 39.0703 286.319 40.2861C287.043 41.502 287.406 42.8661 287.406 44.3783C287.406 45.9062 287.043 47.2854 286.319 48.5169C285.593 49.748 284.597 50.719 283.33 51.4308C282.063 52.1426 280.645 52.4985 279.077 52.4985C277.509 52.4985 276.091 52.1464 274.825 51.4426C273.557 50.7389 272.561 49.7666 271.836 48.5275C271.111 47.2897 270.749 45.9066 270.749 44.3787C270.749 42.8665 271.111 41.5024 271.836 40.2866C272.561 39.0707 273.557 38.114 274.825 37.4166C276.091 36.7191 277.509 36.3708 279.077 36.3708C280.645 36.3708 282.062 36.7187 283.33 37.4162ZM277.001 40.4187C276.348 40.8198 275.832 41.3716 275.45 42.0766C275.07 42.7804 274.88 43.5555 274.88 44.4011C274.88 45.2611 275.073 46.0438 275.462 46.7476C275.85 47.4526 276.366 48.0086 277.011 48.416C277.655 48.8247 278.359 49.0286 279.121 49.0286C279.883 49.0286 280.582 48.8247 281.22 48.416C281.857 48.0086 282.359 47.453 282.724 46.7476C283.091 46.0438 283.275 45.2611 283.275 44.4011C283.275 43.5555 283.091 42.7804 282.724 42.0766C282.359 41.3716 281.857 40.8193 281.22 40.4187C280.582 40.0189 279.883 39.8179 279.121 39.8179C278.359 39.8179 277.652 40.0189 277.001 40.4187Z" fill="#69676F"/>
<path d="M300.421 36.615H304.156V52.2086H300.641L293.653 42.8873V52.2086H289.894V36.615H293.433L300.443 46.0021L300.421 36.615Z" fill="#69676F"/>
<path d="M31.118 63C48.304 63 62.236 48.897 62.236 31.5C62.236 14.103 48.304 0 31.118 0C13.932 0 0 14.103 0 31.5C0 48.897 13.932 63 31.118 63Z" fill="#003860"/>
<path d="M8.22607 31.185C8.22607 29.9294 8.44545 28.7912 8.88294 27.7717C9.32127 26.7517 9.91933 25.8807 10.6784 25.1563C11.4374 24.4322 12.3316 23.8745 13.3609 23.4828C14.3902 23.0914 15.4887 22.8955 16.6565 22.8955C17.8535 22.8955 18.9849 23.0914 20.0505 23.4828C21.1161 23.8741 22.0065 24.4027 22.7218 25.0676L19.525 28.9685C19.2327 28.5844 18.8682 28.2922 18.4302 28.0929C17.9923 27.8933 17.5031 27.7936 16.963 27.7936C16.5251 27.7936 16.1164 27.8713 15.7369 28.0262C15.3565 28.1812 15.0254 28.407 14.7401 28.7021C14.4557 28.9981 14.233 29.3565 14.0724 29.7774C13.9114 30.1988 13.8318 30.6678 13.8318 31.185C13.8318 31.7026 13.9156 32.164 14.0828 32.5701C14.2509 32.9767 14.4774 33.328 14.7618 33.6231C15.0471 33.919 15.3782 34.1436 15.7586 34.2994C16.1377 34.4543 16.5389 34.532 16.9626 34.532C17.5615 34.532 18.0757 34.4062 18.5066 34.155C18.9374 33.9038 19.2765 33.6083 19.5246 33.268L22.7214 37.1474C22.0211 37.8562 21.1591 38.4215 20.1377 38.8429C19.1159 39.2638 17.9552 39.474 16.6565 39.474C15.4887 39.474 14.3906 39.2752 13.3609 38.8758C12.3316 38.4764 11.4374 37.9115 10.6784 37.1803C9.91933 36.4487 9.32127 35.5773 8.88294 34.5649C8.44545 33.5534 8.22607 32.4266 8.22607 31.185Z" fill="#FFED00"/>
<path d="M31.3626 17.9404C31.1874 17.9037 31.0123 17.8851 30.8371 17.8851C30.3404 17.8851 29.9942 18.0401 29.797 18.3504C29.5997 18.6607 29.5013 19.052 29.5013 19.5249V19.6806H31.9319V23.3376H29.5013V39.0308H24.4436V19.4142C24.4436 18.6902 24.5274 17.9957 24.6959 17.3308C24.8644 16.6659 25.1547 16.0782 25.5651 15.5686C25.9755 15.0586 26.5285 14.6563 27.2254 14.3608C27.9215 14.0657 28.7973 13.9175 29.852 13.9175C30.1877 13.9175 30.5777 13.9432 31.0235 13.9952C31.469 14.0475 31.8451 14.1315 32.1517 14.2502L31.823 18.0844C31.6912 18.0253 31.5382 17.9771 31.3626 17.9404Z" fill="#7AB732"/>
<path d="M39.7018 39.4305C38.4757 39.4305 37.3409 39.238 36.297 38.8538C35.2526 38.4696 34.348 37.9195 33.5819 37.2026C32.8149 36.4858 32.2135 35.6178 31.7748 34.5978C31.3369 33.5782 31.1179 32.4405 31.1179 31.1845C31.1179 29.9289 31.3373 28.7907 31.7748 27.7712C32.2131 26.7512 32.8112 25.8802 33.5702 25.1558C34.3293 24.4317 35.2197 23.8741 36.2419 23.4823C37.2629 23.0909 38.3585 22.895 39.5262 22.895C40.7378 22.895 41.8872 23.0947 42.9749 23.4932C44.0626 23.8926 44.9493 24.4389 45.6353 25.1334L42.5916 28.8355C42.2701 28.4513 41.8906 28.1448 41.4531 27.9156C41.0156 27.6863 40.4746 27.5715 39.8328 27.5715C39.4095 27.5715 38.997 27.6568 38.5954 27.8265C38.1937 27.9966 37.8405 28.2406 37.534 28.5581C37.227 28.876 36.9784 29.2564 36.7891 29.6993C36.5989 30.143 36.5047 30.6378 36.5047 31.1845C36.5047 32.2784 36.7857 33.1683 37.3475 33.8552C37.9093 34.5425 38.811 34.8857 40.0522 34.8857C40.2715 34.8857 40.4972 34.8676 40.7311 34.8304C40.9647 34.7937 41.1469 34.7384 41.2783 34.6645V30.4883H45.8989V37.9005C45.5336 38.1226 45.1136 38.3256 44.6398 38.5101C44.1652 38.6946 43.6614 38.8534 43.1288 38.9864C42.5958 39.1193 42.0378 39.2261 41.4539 39.3081C40.8696 39.39 40.2857 39.4305 39.7018 39.4305Z" fill="#EA7517"/>
<path d="M47.5808 23.3379H52.8357V39.0311H47.5808V23.3379Z" fill="#00A3E6"/>
</svg>
