<svg width="305" height="63" viewBox="0 0 305 63" fill="none" xmlns="http://www.w3.org/2000/svg">
<path d="M80.8288 15.04C79.9371 14.5832 79.0409 14.3557 78.1396 14.3557C77.0544 14.3557 76.0614 14.6259 75.161 15.1658C74.2593 15.7058 73.5516 16.4404 73.0369 17.3709C72.5218 18.3013 72.2649 19.3353 72.2649 20.4709C72.2649 21.6066 72.5218 22.6443 73.0369 23.5841C73.5516 24.5238 74.2593 25.269 75.161 25.817C76.0614 26.3662 77.0544 26.6402 78.1396 26.6402C79.0038 26.6402 79.8813 26.4312 80.7738 26.0128C81.6654 25.5932 82.4603 25.0309 83.1593 24.3237L85.7247 27.143C84.6941 28.2229 83.4855 29.0795 82.0975 29.7124C80.7087 30.3452 79.3161 30.6614 77.9186 30.6614C76.0247 30.6614 74.3056 30.2194 72.7608 29.335C71.2164 28.4509 70.0024 27.2372 69.1199 25.6911C68.2374 24.1464 67.7961 22.4243 67.7961 20.5262C67.7961 18.6467 68.2466 16.9432 69.1474 15.4158C70.0483 13.8908 71.2853 12.6889 72.8576 11.8141C74.4299 10.9394 76.1715 10.5024 78.0846 10.5024C79.4817 10.5024 80.8605 10.795 82.2218 11.3814C83.5822 11.9678 84.7408 12.7645 85.6971 13.7693L83.1589 16.9246C82.4979 16.1242 81.7205 15.4955 80.8288 15.04Z" fill="#69676F"/>
<path d="M101.69 11.8146C103.271 12.6894 104.516 13.8956 105.427 15.431C106.337 16.9665 106.792 18.6755 106.792 20.555C106.792 22.4345 106.337 24.1473 105.427 25.6921C104.516 27.2381 103.271 28.4518 101.69 29.3359C100.108 30.2199 98.3519 30.6624 96.4213 30.6624C94.4907 30.6624 92.7345 30.2204 91.153 29.3359C89.5715 28.4518 88.3262 27.2419 87.4153 25.7064C86.5053 24.171 86.0503 22.4531 86.0503 20.555C86.0503 18.6755 86.5053 16.9665 87.4153 15.431C88.3262 13.8956 89.5669 12.6898 91.1392 11.8146C92.7116 10.9395 94.4724 10.5029 96.4213 10.5029C98.3523 10.5029 100.108 10.9395 101.69 11.8146ZM93.4977 15.179C92.5777 15.7282 91.852 16.4776 91.3186 17.4267C90.7852 18.377 90.5191 19.4189 90.5191 20.5546C90.5191 21.7088 90.7898 22.7596 91.3323 23.7099C91.8749 24.659 92.6015 25.4122 93.5115 25.9707C94.4215 26.5292 95.4099 26.8087 96.4764 26.8087C97.5428 26.8087 98.522 26.5347 99.4145 25.9855C100.306 25.4362 101.014 24.6831 101.538 23.7234C102.062 22.7651 102.324 21.7088 102.324 20.5546C102.324 19.4189 102.062 18.3774 101.538 17.4267C101.014 16.4776 100.306 15.7282 99.4145 15.179C98.522 14.631 97.5428 14.3557 96.4764 14.3557C95.4099 14.3557 94.4169 14.6314 93.4977 15.179Z" fill="#69676F"/>
<path d="M109.504 10.8096H114.359L120.371 22.8163L126.33 10.8096H131.157V30.3543H127.24V17.1473L121.75 28.3718H118.937L113.42 17.1473V30.3547H109.504V10.8096Z" fill="#69676F"/>
<path d="M133.868 10.8096H138.723L144.736 22.8163L150.694 10.8096H155.521V30.3543H151.604V17.1473L146.114 28.3718H143.301L137.784 17.1473V30.3547H133.868V10.8096H133.868Z" fill="#69676F"/>
<path d="M163.763 25.5934C164.544 26.4036 165.588 26.8084 166.894 26.8084C168.162 26.8084 169.174 26.4086 169.928 25.6078C170.681 24.8069 171.059 23.7004 171.059 22.2856V10.8096H175.417V22.2856C175.417 23.9984 175.073 25.4824 174.383 26.7384C173.693 27.9956 172.705 28.9632 171.418 29.6425C170.13 30.3231 168.613 30.6617 166.866 30.6617C165.119 30.6617 163.593 30.3226 162.288 29.6425C160.982 28.9637 159.98 27.996 159.281 26.7384C158.582 25.4824 158.233 23.9984 158.233 22.2856V10.8096H162.591V22.2856C162.591 23.6805 162.981 24.7845 163.763 25.5934Z" fill="#69676F"/>
<path d="M191.479 10.8096H195.616V30.3543H191.644L182.294 17.7903V30.3543H178.129V10.8096H182.101L191.479 23.4306V10.8096Z" fill="#69676F"/>
<path d="M198.327 10.8096H202.685V30.3543H198.327V10.8096Z" fill="#69676F"/>
<path d="M205.397 10.8096H221.533V14.5513H215.63V30.3543H211.272V14.5513H205.397V10.8096H205.397Z" fill="#69676F"/>
<path d="M241.437 10.8096L234.404 24.0444V30.3543H230.046V24.1559L222.902 10.8096H227.288L232.225 19.5774L237.052 10.8096H241.437Z" fill="#69676F"/>
<path d="M249.933 10.8096H263.808L263.78 14.4669H254.291V19.2704H263.008V22.9556H254.291V30.3547H249.934V10.8096H249.933Z" fill="#69676F"/>
<path d="M280.825 11.8146C282.406 12.6894 283.652 13.8956 284.562 15.431C285.472 16.9665 285.927 18.6755 285.927 20.555C285.927 22.4345 285.472 24.1473 284.562 25.6921C283.652 27.2381 282.406 28.4518 280.825 29.3359C279.243 30.2199 277.487 30.6624 275.556 30.6624C273.626 30.6624 271.87 30.2204 270.288 29.3359C268.707 28.4518 267.461 27.2419 266.551 25.7064C265.64 24.171 265.185 22.4531 265.185 20.555C265.185 18.6755 265.64 16.9665 266.551 15.431C267.461 13.8956 268.702 12.6898 270.274 11.8146C271.847 10.9395 273.608 10.5029 275.556 10.5029C277.487 10.5029 279.243 10.9395 280.825 11.8146ZM272.633 15.179C271.713 15.7282 270.987 16.4776 270.454 17.4267C269.92 18.377 269.654 19.4189 269.654 20.5546C269.654 21.7088 269.925 22.7596 270.468 23.7099C271.01 24.659 271.737 25.4122 272.647 25.9707C273.557 26.5292 274.545 26.8087 275.611 26.8087C276.678 26.8087 277.657 26.5347 278.55 25.9855C279.441 25.4362 280.149 24.6831 280.673 23.7234C281.198 22.7651 281.459 21.7088 281.459 20.5546C281.459 19.4189 281.198 18.3774 280.673 17.4267C280.149 16.4776 279.441 15.7282 278.55 15.179C277.657 14.631 276.678 14.3557 275.611 14.3557C274.545 14.3557 273.552 14.6314 272.633 15.179Z" fill="#69676F"/>
<path d="M300.062 30.3543L297 24.7697H296.587H292.559V30.3543H288.202V10.8096H296.587C299.106 10.8096 301.055 11.401 302.434 12.5819C303.813 13.7652 304.503 15.4358 304.503 17.5944C304.503 19.102 304.195 20.3913 303.579 21.4607C302.963 22.5314 302.066 23.3457 300.889 23.9043L305 30.3543H300.062ZM292.559 21.085H296.586C297.799 21.085 298.733 20.8004 299.386 20.2326C300.038 19.6648 300.365 18.8322 300.365 17.7337C300.365 16.6551 300.038 15.8411 299.386 15.2914C298.733 14.7422 297.8 14.4669 296.586 14.4669H292.559V21.085Z" fill="#69676F"/>
<path d="M78.9812 44.2451H82.4545V50.4515C81.6329 51.0599 80.6257 51.5526 79.4321 51.9304C78.2372 52.3096 77.1066 52.4978 76.0364 52.4978C74.4837 52.4978 73.0815 52.1457 71.8283 51.442C70.5763 50.7382 69.5903 49.7697 68.8721 48.5387C68.1552 47.3076 67.7961 45.9292 67.7961 44.4013C67.7961 42.8878 68.1657 41.5199 68.9055 40.2964C69.6454 39.073 70.6643 38.1138 71.9609 37.4163C73.2575 36.7189 74.7031 36.3706 76.3 36.3706C77.4435 36.3706 78.5863 36.5821 79.7286 37.0047C80.8709 37.4265 81.8377 37.9935 82.6301 38.7065L80.3438 41.5533C79.787 41.0196 79.1464 40.5966 78.4207 40.2859C77.6959 39.9739 76.9814 39.8177 76.2783 39.8177C75.4579 39.8177 74.7181 40.0187 74.0583 40.4185C73.3997 40.8195 72.8788 41.3675 72.4981 42.065C72.1173 42.7624 71.9275 43.5413 71.9275 44.4013C71.9275 45.2769 72.1173 46.0659 72.4981 46.7697C72.8788 47.4748 73.406 48.027 74.0812 48.4276C74.7548 48.8274 75.5013 49.0284 76.3229 49.0284C77.0986 49.0284 77.9849 48.7755 78.9808 48.2714V44.2451H78.9812Z" fill="#69676F"/>
<path d="M84.4396 36.6147H88.4617V48.7376H94.9878V52.2083H84.4396V36.6147Z" fill="#69676F"/>
<path d="M107.967 37.4159C109.235 38.1134 110.231 39.07 110.956 40.2859C111.681 41.5018 112.044 42.8658 112.044 44.3781C112.044 45.9059 111.681 47.2852 110.956 48.5167C110.23 49.7478 109.234 50.7188 107.967 51.4306C106.7 52.1424 105.282 52.4983 103.715 52.4983C102.147 52.4983 100.729 52.1462 99.4631 51.4424C98.1944 50.7386 97.1985 49.7663 96.474 48.5272C95.7492 47.2894 95.3864 45.9064 95.3864 44.3785C95.3864 42.8662 95.7492 41.5022 96.474 40.2863C97.1989 39.0704 98.1948 38.1138 99.4631 37.4163C100.729 36.7189 102.146 36.3706 103.715 36.3706C105.283 36.3702 106.7 36.7185 107.967 37.4159ZM101.639 40.4185C100.987 40.8195 100.47 41.3713 100.089 42.0764C99.7079 42.7801 99.5182 43.5552 99.5182 44.4009C99.5182 45.2608 99.7117 46.0436 100.1 46.7473C100.489 47.4524 101.005 48.0084 101.649 48.4158C102.293 48.8245 102.998 49.0284 103.759 49.0284C104.521 49.0284 105.22 48.8245 105.858 48.4158C106.495 48.0084 106.997 47.4528 107.363 46.7473C107.73 46.0436 107.913 45.2608 107.913 44.4009C107.913 43.5552 107.729 42.7801 107.363 42.0764C106.997 41.3713 106.495 40.8191 105.858 40.4185C105.22 40.0187 104.521 39.8177 103.759 39.8177C102.998 39.8177 102.29 40.0187 101.639 40.4185Z" fill="#69676F"/>
<path d="M124.346 37.0931C125.203 37.4114 125.866 37.8678 126.335 38.4609C126.804 39.0541 127.038 39.7515 127.038 40.552C127.038 41.3668 126.8 42.0799 126.324 42.6869C125.848 43.2953 125.199 43.7107 124.379 43.9324C125.361 44.1257 126.134 44.5783 126.698 45.2901C127.262 46.0019 127.544 46.8619 127.544 47.87C127.544 48.7456 127.302 49.514 126.819 50.1726C126.336 50.8329 125.646 51.337 124.754 51.6861C123.86 52.0344 122.811 52.2083 121.61 52.2083H114.007V36.6147H121.325C122.482 36.6147 123.49 36.7735 124.346 37.0931ZM122.424 42.4087C122.746 42.1356 122.906 41.7527 122.906 41.2638C122.906 40.7893 122.746 40.422 122.424 40.1627C122.101 39.9035 121.661 39.7811 121.104 39.7954H118.028V42.8212H121.104C121.661 42.8216 122.102 42.6836 122.424 42.4087ZM122.775 48.6051C123.185 48.3087 123.39 47.8933 123.39 47.3596C123.39 46.8699 123.185 46.4802 122.775 46.1915C122.365 45.9014 121.808 45.7646 121.104 45.779H118.028V49.05H121.104C121.808 49.05 122.365 48.9014 122.775 48.6051Z" fill="#69676F"/>
<path d="M140.609 52.2083L139.554 49.4494H132.896L131.819 52.2083H127.688L134.302 36.6147H138.433L144.895 52.2083H140.609ZM134.104 46.3354H138.367L136.258 40.7736L134.104 46.3354Z" fill="#69676F"/>
<path d="M146.074 36.6147H150.096V48.7376H156.622V52.2083H146.074V36.6147Z" fill="#69676F"/>
<path d="M163.325 36.6147H167.347V52.2083H163.325V36.6147Z" fill="#69676F"/>
<path d="M180.773 36.6147H184.509V52.2083H180.993L174.005 42.8871V52.2083H170.247V36.6147H173.785L180.795 46.0019L180.773 36.6147Z" fill="#69676F"/>
<path d="M197.942 36.6147H201.678V52.2083H198.162L191.174 42.8871V52.2083H187.415V36.6147H190.954L197.964 46.0019L197.942 36.6147Z" fill="#69676F"/>
<path d="M216.233 37.4159C217.5 38.1134 218.496 39.07 219.222 40.2859C219.947 41.5018 220.31 42.8658 220.31 44.3781C220.31 45.9059 219.947 47.2852 219.222 48.5167C218.496 49.7478 217.5 50.7188 216.233 51.4306C214.966 52.1424 213.548 52.4983 211.98 52.4983C210.412 52.4983 208.995 52.1462 207.729 51.4424C206.46 50.7386 205.464 49.7663 204.739 48.5272C204.015 47.2894 203.652 45.9064 203.652 44.3785C203.652 42.8662 204.015 41.5022 204.739 40.2863C205.464 39.0704 206.46 38.1138 207.729 37.4163C208.995 36.7189 210.412 36.3706 211.98 36.3706C213.548 36.3702 214.966 36.7185 216.233 37.4159ZM209.904 40.4185C209.252 40.8195 208.735 41.3713 208.354 42.0764C207.973 42.7801 207.784 43.5552 207.784 44.4009C207.784 45.2608 207.977 46.0436 208.366 46.7473C208.754 47.4524 209.27 48.0084 209.914 48.4158C210.559 48.8245 211.263 49.0284 212.025 49.0284C212.786 49.0284 213.486 48.8245 214.124 48.4158C214.761 48.0084 215.262 47.4528 215.628 46.7473C215.995 46.0436 216.178 45.2608 216.178 44.4009C216.178 43.5552 215.995 42.7801 215.628 42.0764C215.263 41.3713 214.761 40.8191 214.124 40.4185C213.486 40.0187 212.786 39.8177 212.025 39.8177C211.263 39.8177 210.555 40.0187 209.904 40.4185Z" fill="#69676F"/>
<path d="M219.924 36.6147H224.254L228.1 47.8933L231.967 36.6147H236.099L230.077 52.2083H225.903L219.924 36.6147Z" fill="#69676F"/>
<path d="M246.177 52.2083L245.122 49.4494H238.463L237.387 52.2083H233.255L239.869 36.6147H244.001L250.462 52.2083H246.177ZM239.672 46.3354H243.935L241.826 40.7736L239.672 46.3354Z" fill="#69676F"/>
<path d="M248.326 36.6147H261.533V39.9732H256.918V52.2083H252.897V39.9736H248.326V36.6147Z" fill="#69676F"/>
<path d="M264.092 36.6147H268.114V52.2083H264.092V36.6147Z" fill="#69676F"/>
<path d="M283.33 37.4159C284.597 38.1134 285.593 39.07 286.319 40.2859C287.044 41.5018 287.406 42.8658 287.406 44.3781C287.406 45.9059 287.044 47.2852 286.319 48.5167C285.593 49.7478 284.597 50.7188 283.33 51.4306C282.063 52.1424 280.645 52.4983 279.077 52.4983C277.509 52.4983 276.092 52.1462 274.825 51.4424C273.557 50.7386 272.561 49.7663 271.836 48.5272C271.112 47.2894 270.749 45.9064 270.749 44.3785C270.749 42.8662 271.112 41.5022 271.836 40.2863C272.561 39.0704 273.557 38.1138 274.825 37.4163C276.092 36.7189 277.509 36.3706 279.077 36.3706C280.645 36.3706 282.062 36.7185 283.33 37.4159ZM277.001 40.4185C276.349 40.8195 275.832 41.3713 275.451 42.0764C275.07 42.7801 274.88 43.5552 274.88 44.4009C274.88 45.2608 275.074 46.0436 275.462 46.7473C275.851 47.4524 276.366 48.0084 277.011 48.4158C277.655 48.8245 278.36 49.0284 279.121 49.0284C279.883 49.0284 280.582 48.8245 281.22 48.4158C281.857 48.0084 282.359 47.4528 282.725 46.7473C283.092 46.0436 283.275 45.2608 283.275 44.4009C283.275 43.5552 283.091 42.7801 282.725 42.0764C282.359 41.3713 281.857 40.8191 281.22 40.4185C280.582 40.0187 279.883 39.8177 279.121 39.8177C278.36 39.8177 277.652 40.0187 277.001 40.4185Z" fill="#69676F"/>
<path d="M300.421 36.6147H304.157V52.2083H300.641L293.653 42.8871V52.2083H289.894V36.6147H293.433L300.443 46.0019L300.421 36.6147Z" fill="#69676F"/>
<path d="M31.118 63C48.304 63 62.236 48.897 62.236 31.5C62.236 14.103 48.304 0 31.118 0C13.932 0 0 14.103 0 31.5C0 48.897 13.932 63 31.118 63Z" fill="#003860"/>
<path d="M8.22607 31.185C8.22607 29.9294 8.44545 28.7912 8.88294 27.7717C9.32127 26.7517 9.91933 25.8807 10.6784 25.1563C11.4374 24.4322 12.3316 23.8745 13.3609 23.4828C14.3902 23.0914 15.4887 22.8955 16.6565 22.8955C17.8535 22.8955 18.9849 23.0914 20.0505 23.4828C21.1161 23.8741 22.0065 24.4027 22.7218 25.0676L19.525 28.9685C19.2327 28.5844 18.8682 28.2922 18.4302 28.0929C17.9923 27.8933 17.5031 27.7936 16.963 27.7936C16.5251 27.7936 16.1164 27.8713 15.7369 28.0262C15.3565 28.1812 15.0254 28.407 14.7401 28.7021C14.4557 28.9981 14.233 29.3565 14.0724 29.7774C13.9114 30.1988 13.8318 30.6678 13.8318 31.185C13.8318 31.7026 13.9156 32.164 14.0828 32.5701C14.2509 32.9767 14.4774 33.328 14.7618 33.6231C15.0471 33.919 15.3782 34.1436 15.7586 34.2994C16.1377 34.4543 16.5389 34.532 16.9626 34.532C17.5615 34.532 18.0757 34.4062 18.5066 34.155C18.9374 33.9038 19.2765 33.6083 19.5246 33.268L22.7214 37.1474C22.0211 37.8562 21.1591 38.4215 20.1377 38.8429C19.1159 39.2638 17.9552 39.474 16.6565 39.474C15.4887 39.474 14.3906 39.2752 13.3609 38.8758C12.3316 38.4764 11.4374 37.9115 10.6784 37.1803C9.91933 36.4487 9.32127 35.5773 8.88294 34.5649C8.44545 33.5534 8.22607 32.4266 8.22607 31.185Z" fill="#FFED00"/>
<path d="M31.3627 17.9404C31.1876 17.9037 31.0124 17.8851 30.8372 17.8851C30.3405 17.8851 29.9944 18.0401 29.7971 18.3504C29.5998 18.6607 29.5014 19.052 29.5014 19.5249V19.6806H31.932V23.3376H29.5014V39.0308H24.4437V19.4142C24.4437 18.6902 24.5276 17.9957 24.696 17.3308C24.8645 16.6659 25.1548 16.0782 25.5652 15.5686C25.9756 15.0586 26.5286 14.6563 27.2255 14.3608C27.9216 14.0657 28.7974 13.9175 29.8521 13.9175C30.1879 13.9175 30.5778 13.9432 31.0237 13.9952C31.4691 14.0475 31.8453 14.1315 32.1518 14.2502L31.8232 18.0844C31.6914 18.0253 31.5383 17.9771 31.3627 17.9404Z" fill="#7AB732"/>
<path d="M39.7017 39.4305C38.4756 39.4305 37.3407 39.238 36.2968 38.8538C35.2525 38.4696 34.3479 37.9195 33.5818 37.2026C32.8148 36.4858 32.2134 35.6178 31.7747 34.5978C31.3368 33.5782 31.1178 32.4405 31.1178 31.1845C31.1178 29.9289 31.3372 28.7907 31.7747 27.7712C32.213 26.7512 32.8111 25.8802 33.5701 25.1558C34.3292 24.4317 35.2196 23.8741 36.2418 23.4823C37.2627 23.0909 38.3584 22.895 39.5261 22.895C40.7377 22.895 41.8871 23.0947 42.9748 23.4932C44.0625 23.8926 44.9491 24.4389 45.6352 25.1334L42.5915 28.8355C42.27 28.4513 41.8904 28.1448 41.4529 27.9156C41.0154 27.6863 40.4745 27.5715 39.8327 27.5715C39.4093 27.5715 38.9969 27.6568 38.5952 27.8265C38.1936 27.9966 37.8404 28.2406 37.5338 28.5581C37.2269 28.876 36.9783 29.2564 36.789 29.6993C36.5988 30.143 36.5045 30.6378 36.5045 31.1845C36.5045 32.2784 36.7856 33.1683 37.3474 33.8552C37.9092 34.5425 38.8109 34.8857 40.052 34.8857C40.2714 34.8857 40.497 34.8676 40.731 34.8304C40.9646 34.7937 41.1468 34.7384 41.2782 34.6645V30.4883H45.8988V37.9005C45.5334 38.1226 45.1135 38.3256 44.6397 38.5101C44.1651 38.6946 43.6613 38.8534 43.1287 38.9864C42.5957 39.1193 42.0377 39.2261 41.4538 39.3081C40.8695 39.39 40.2856 39.4305 39.7017 39.4305Z" fill="#EA7517"/>
<path d="M47.5808 23.3379H52.8357V39.0311H47.5808V23.3379Z" fill="#00A3E6"/>
</svg>
